<svg width="17" height="17" viewBox="0 0 17 17" fill="none" xmlns="http://www.w3.org/2000/svg">
<path fill-rule="evenodd" clip-rule="evenodd" d="M7.1862 1.24566C6.96545 1.36371 6.85689 1.57783 6.83365 1.82001C6.82364 1.93716 6.80861 2.05348 6.78817 2.16933C6.7448 2.41523 6.66262 2.76271 6.50863 3.15566C6.20147 3.93952 5.61409 4.89308 4.4805 5.60154C2.88299 6.59995 2.29042 8.84331 2.54364 10.8516C2.80216 12.902 3.97307 15.0271 6.28977 15.7993C6.5206 15.8763 6.77502 15.8214 6.95355 15.656C7.172 15.4538 7.18313 15.1857 7.12761 14.9151C7.08687 14.7165 7.00059 14.2192 7.00059 13.6252C7.00059 13.433 7.00948 13.2358 7.03002 13.0381C7.38607 13.8542 7.86873 14.4494 8.35113 14.8751C9.06873 15.5083 9.74687 15.7385 9.94873 15.798C10.1019 15.8431 10.2647 15.8459 10.4147 15.7858C12.1861 15.0773 13.3013 14.1157 13.9243 13.0164C14.5459 11.9194 14.6335 10.7628 14.4944 9.74344C14.3561 8.72931 13.9909 7.82351 13.6697 7.18124C13.4269 6.69552 13.2029 6.34752 13.1001 6.19519C12.974 6.00852 12.8097 5.86442 12.5758 5.83782C12.3894 5.81662 12.2027 5.87496 12.0615 5.9985L11.0181 6.91148C11.1077 5.46346 10.5983 4.24688 9.96607 3.33006C9.50693 2.6643 8.98307 2.153 8.57733 1.80927C8.37353 1.63656 8.1968 1.5039 8.06893 1.41306C8.00487 1.3676 7.95287 1.33245 7.91553 1.30786C7.69447 1.16218 7.42933 1.11566 7.1862 1.24566ZM5.67657 14.0042C5.67067 13.8832 5.66726 13.7564 5.66726 13.6252C5.66727 12.9234 5.76511 12.0375 6.15261 11.2141C6.28241 10.9384 6.44469 10.6696 6.64669 10.4171C6.81665 10.2046 7.09866 10.1168 7.3592 10.1951C7.61973 10.2734 7.8066 10.5022 7.8312 10.7732C7.982 12.432 8.64893 13.3597 9.23327 13.8753C9.53187 14.1388 9.81993 14.304 10.0286 14.4019C10.8339 14.5002 12.4239 12.9597 12.7643 12.359C13.2052 11.581 13.2843 10.7376 13.1733 9.92364C13.0437 8.97304 12.6542 8.09338 12.3443 7.52271L10.2729 9.33524C10.0361 9.54251 9.6866 9.55591 9.4346 9.36744C9.1826 9.17891 9.09673 8.83991 9.2286 8.55418C10.106 6.65313 9.60393 5.15349 8.86847 4.08704C8.57647 3.66372 8.24787 3.31124 7.95393 3.03821C7.90053 3.22558 7.83373 3.42866 7.75007 3.64214C7.63127 3.94528 7.47807 4.27045 7.28087 4.60149C6.83927 5.34277 6.17715 6.11349 5.18715 6.73222C4.21895 7.33731 3.64491 8.92731 3.8665 10.6848C4.03356 12.0098 4.63554 13.2498 5.67657 14.0042Z" fill="#B55D51" fill-opacity="0.972549"/>
</svg>
